<svg id="Layer_1" xmlns="http://www.w3.org/2000/svg" viewBox="0 0 512 512"><style>.st0{fill:#cbcccd}.st1{fill:#ccc}.st2{fill:#f1f0f0}.st3{fill:#e8e8e8}.st4{fill:#79b042}.st5{fill:#99ca3c}.st6{fill:#2e434e}.st7{fill:#465761}</style><path class="st0" d="M442.5 108.6c-16.8-18.5-54.1-35.2-78.7-26.2-32.8 9.7-64 62.5-111.5 62.5-48.6 0-70.4-47.9-106.1-60.2-20.1-5.4-60.1 0-82.9 23.6C47.6 124.4 13.2 190.2 6.1 245c-9.6 73.9 3.7 124.3 13.3 150 14.5 38.9 64.5 52.1 90 22.7 9.3-10.7 62.5-75.9 71.4-83.4 8.9-7.5 33.8-22.5 72.4-22.5s74.3 15.9 80.9 22.1c6.6 6.3 67 78.6 77.6 88.1 29.3 26.6 69.2 17.1 86.9-25.3 8-19.2 18.8-87.2 6.8-149.9-13.3-70.5-55.7-130.2-62.9-138.2z"/><path class="st1" d="M507.4 236.9c-13.5-71-56.1-131-63.4-139.1-8.7-9.6-22.6-18.5-37.2-23.9-16.4-6.1-31.9-7.1-43.6-2.8-13.5 4-26.6 15-40.5 26.6-20 16.8-42.7 35.8-70.4 35.8-28.4 0-47.5-16.9-66-33.2-12.7-11.3-24.8-21.9-39.4-26.9h-.1c-20.5-5.5-61.4-.1-84.9 24.1-15.8 16.1-50.6 82.2-57.8 137.8-9.2 70.6 2.2 121.1 13.4 151 7.6 20.3 25.3 35.3 46.3 39.1 18.3 3.3 35.5-2.4 47-15.8 2.7-3 8.7-10.4 16.5-19.7 19.3-23.2 48.5-58.3 54.8-63.6 4.4-3.7 28.3-22.1 71.2-22.1 37 0 72.9 15.3 79.5 21.6 2.7 2.6 15.5 17.4 29 33.2 19.9 23.1 42.4 49.4 48.6 55 11.1 10.1 23.9 15.4 36.9 15.4 3.5 0 7-.4 10.4-1.1 18.2-4 33.8-18.7 42.8-40.2 8.7-21.2 18.6-89.6 6.9-151.2z"/><path class="st2" d="M252.2 135.3c-48.6 0-70.4-47.9-106.1-60.2-20.1-5.4-60.1 0-82.9 23.6C47.6 114.8 13.1 180.6 6 235.3c-9.6 73.9 3.8 124.3 13.4 150 14.5 38.9 64.5 52.1 90 22.7 9.3-10.7 62.5-75.9 71.4-83.4 4.4-3.7 12.6-9.1 24.3-13.8L301.3 117c-14.6 10.4-30.7 18.3-49.1 18.3z"/><path class="st3" d="M505.3 237.2C492.1 166.7 449.7 107 442.4 99c-16.8-18.5-54.1-35.2-78.7-26.2-20 6-39.6 28-62.5 44.3L205.1 311c12.3-4.9 28.4-8.7 48-8.7 38.5 0 74.3 15.9 80.9 22.1 6.6 6.3 67 78.6 77.6 88.1 29.3 26.6 69.2 17.1 86.9-25.3 8.1-19.3 18.8-87.3 6.8-150z"/><circle class="st0" cx="381.5" cy="158.8" r="23.9"/><ellipse class="st4" cx="381.5" cy="156.5" rx="23.9" ry="21.5"/><ellipse class="st5" cx="381.5" cy="153.7" rx="23.9" ry="18.9"/><circle class="st0" cx="381.5" cy="263.5" r="23.9"/><ellipse class="st4" cx="381.5" cy="261.1" rx="23.9" ry="21.5"/><ellipse class="st5" cx="381.5" cy="258.5" rx="23.9" ry="18.9"/><circle class="st0" cx="441.7" cy="215.6" r="23.9"/><ellipse class="st4" cx="441.7" cy="213.2" rx="23.9" ry="21.5"/><ellipse class="st5" cx="441.7" cy="210.5" rx="23.9" ry="18.9"/><circle class="st0" cx="328.1" cy="215.6" r="23.9"/><ellipse class="st4" cx="328.1" cy="213.2" rx="23.9" ry="21.5"/><ellipse class="st5" cx="328.1" cy="210.5" rx="23.9" ry="18.9"/><path class="st6" d="M191.2 196.4h-42.4v-42.3h-33.5v42.3H72.8V230h42.5v42.4h33.5V230h42.4z"/><path class="st7" d="M191.2 190.7h-42.4v-42.5h-33.5v42.5H72.8v33.5h42.5v42.4h33.5v-42.4h42.4z"/></svg>